<svg xmlns="http://www.w3.org/2000/svg" xmlns:xlink="http://www.w3.org/1999/xlink" width="51.252" height="30" viewBox="0 0 51.252 30">
    <defs>
        <radialGradient id="sf65p3jpsa" cx=".672" cy=".14" r=".664" gradientUnits="objectBoundingBox">
            <stop offset="0" stop-color="#fff"/>
            <stop offset="1" stop-color="#28903b"/>
        </radialGradient>
        <radialGradient id="13kqvxh5hb" cx=".672" cy=".14" r=".664" xlink:href="#sf65p3jpsa"/>
        <radialGradient id="gv3757610c" cx=".672" cy=".14" r=".664" xlink:href="#sf65p3jpsa"/>
    </defs>
    <g data-name="Group 52">
        <path data-name="Path 1172" d="M174.8 15a15 15 0 1 1-15-15 15.008 15.008 0 0 1 15 15z" transform="translate(-123.548)" style="fill:url(#sf65p3jpsa)"/>
        <path data-name="Path 1173" d="M30 15A15 15 0 1 1 15 0a15.008 15.008 0 0 1 15 15z" style="fill:url(#13kqvxh5hb)"/>
        <path data-name="Path 1174" d="M122.18 40.54a11.14 11.14 0 1 1-11.14-11.14 11.143 11.143 0 0 1 11.14 11.14z" transform="translate(-85.238 -25.085)" style="fill:url(#gv3757610c)"/>
    </g>
    <g data-name="Group 53">
        <path data-name="Path 1175" d="M259.383 95.607v-.793h-2.6v-.954h1.849v-.793h-1.849v-.557h2.6v-.91H255.2v4.007z" transform="translate(-217.743 -78.155)" style="fill:#fff"/>
        <path data-name="Path 1176" d="M289.47 95.607V93.86h1.849v-.793h-1.849v-.557h2.613v-.91H287.9v4.007z" transform="translate(-245.644 -78.155)" style="fill:#fff"/>
        <path data-name="Path 1177" d="M220.4 94.427h1.453a.585.585 0 0 0 .191.352.9.9 0 0 0 .675.235.985.985 0 0 0 .514-.117.335.335 0 0 0 .176-.279.314.314 0 0 0-.176-.264 2.7 2.7 0 0 0-.793-.22 3.876 3.876 0 0 1-1.438-.47.862.862 0 0 1-.44-.749.84.84 0 0 1 .22-.558 1.435 1.435 0 0 1 .675-.411 3.873 3.873 0 0 1 1.218-.147 3 3 0 0 1 1.453.279 1.171 1.171 0 0 1 .6.881h-1.453a.418.418 0 0 0-.25-.308.985.985 0 0 0-.514-.117.814.814 0 0 0-.411.088.259.259 0 0 0-.132.22.206.206 0 0 0 .117.161 1.706 1.706 0 0 0 .514.147 7.746 7.746 0 0 1 1.438.338 1.53 1.53 0 0 1 .631.426.943.943 0 0 1 .205.572 1.071 1.071 0 0 1-.264.69 1.63 1.63 0 0 1-.734.47 3.977 3.977 0 0 1-1.2.161 3 3 0 0 1-1.761-.382 1.649 1.649 0 0 1-.514-.998z" transform="translate(-188.051 -78.326)" style="fill:#fff"/>
        <path data-name="Path 1178" d="M42.664 94.224h1.556a1.666 1.666 0 0 1-1.189 1.262 3.557 3.557 0 0 1-1.145.147 4.571 4.571 0 0 1-1.38-.176 2.177 2.177 0 0 1-.925-.631 1.922 1.922 0 0 1 .294-2.613A3.186 3.186 0 0 1 41.8 91.7a3.469 3.469 0 0 1 1.541.294 2.311 2.311 0 0 1 .851 1.1l-1.438.029a.564.564 0 0 0-.161-.25.933.933 0 0 0-.323-.205 1.384 1.384 0 0 0-.44-.073 1.063 1.063 0 0 0-.837.323 1.086 1.086 0 0 0-.22.749 1.109 1.109 0 0 0 .264.866 1.051 1.051 0 0 0 .734.235.867.867 0 0 0 .69-.191c.188-.22.129-.103.203-.353z" transform="translate(-33.446 -78.241)" style="fill:#fff"/>
        <path data-name="Path 1179" d="M76.1 93.511a1.8 1.8 0 0 1 .66-1.482 2.889 2.889 0 0 1 1.85-.529 3 3 0 0 1 1.864.514 1.759 1.759 0 0 1 .66 1.453 2.126 2.126 0 0 1-.279 1.115 1.881 1.881 0 0 1-.822.675 3.324 3.324 0 0 1-1.35.235 4.051 4.051 0 0 1-1.365-.205 1.837 1.837 0 0 1-.866-.66 1.617 1.617 0 0 1-.352-1.116zm1.5 0a1.046 1.046 0 0 0 .279.837 1.006 1.006 0 0 0 .749.25 1.07 1.07 0 0 0 .749-.25 1.208 1.208 0 0 0 .264-.9.983.983 0 0 0-.279-.793 1.123 1.123 0 0 0-.749-.25 1.083 1.083 0 0 0-.734.25 1.123 1.123 0 0 0-.279.856z" transform="translate(-64.93 -78.07)" style="fill:#fff"/>
        <path data-name="Path 1180" d="M115.415 92h1.321l1.732 2.187V92h1.332v3.948h-1.336l-1.732-2.187v2.172H115.4V92z" transform="translate(-98.462 -78.497)" style="fill:#fff"/>
        <path data-name="Path 1181" d="M150.8 91.9h2.275a3.179 3.179 0 0 1 1.086.147 1.829 1.829 0 0 1 .69.426 1.769 1.769 0 0 1 .4.631 2.189 2.189 0 0 1 .117.763 2.223 2.223 0 0 1-.176.983 1.748 1.748 0 0 1-.5.587 1.618 1.618 0 0 1-.69.308 4.315 4.315 0 0 1-.91.1h-2.275V91.9zm1.541.9v2.172h.382a1.953 1.953 0 0 0 .69-.088.772.772 0 0 0 .323-.294 1.574 1.574 0 0 0 .117-.69 1.13 1.13 0 0 0-.264-.866 1.23 1.23 0 0 0-.851-.235z" transform="translate(-128.666 -78.411)" style="fill:#fff"/>
        <path data-name="Path 1182" d="M188.994 91.9h1.424v2.319a1.589 1.589 0 0 1-.132.646 1.569 1.569 0 0 1-.4.543 1.6 1.6 0 0 1-.572.323 3.289 3.289 0 0 1-1 .132 6.746 6.746 0 0 1-.734-.044 1.98 1.98 0 0 1-.66-.161 1.523 1.523 0 0 1-.484-.338 1.253 1.253 0 0 1-.308-.455A2.021 2.021 0 0 1 186 94.2v-2.3h1.424v2.363a.652.652 0 0 0 .205.5.9.9 0 0 0 .587.176.835.835 0 0 0 .572-.176.63.63 0 0 0 .205-.5z" transform="translate(-158.7 -78.411)" style="fill:#fff"/>
    </g>
</svg>
